<svg width="247" height="93" viewBox="0 0 247 93" fill="none" xmlns="http://www.w3.org/2000/svg">
   <path d="M9.088 35.856H28.544V89.872C27.776 90.128 26.5387 90.3413 24.832 90.512C23.1253 90.768 21.376 90.896 19.584 90.896C15.744 90.896 13.0133 90.2133 11.392 88.848C9.856 87.4827 9.088 85.0933 9.088 81.68V35.856ZM28.544 60.432H9.088V12.176C9.94133 12.0053 11.2213 11.792 12.928 11.536C14.72 11.28 16.4267 11.152 18.048 11.152C21.8027 11.152 24.4907 11.792 26.112 13.072C27.7333 14.352 28.544 16.784 28.544 20.368V60.432ZM56.832 35.856H76.416V89.872C75.5627 90.128 74.2827 90.3413 72.576 90.512C70.8693 90.768 69.12 90.896 67.328 90.896C63.488 90.896 60.7573 90.2133 59.136 88.848C57.6 87.4827 56.832 85.0933 56.832 81.68V35.856ZM76.416 60.432H56.832V12.176C57.7707 12.0053 59.0933 11.792 60.8 11.536C62.5067 11.28 64.2133 11.152 65.92 11.152C69.5893 11.152 72.2347 11.8347 73.856 13.2C75.5627 14.48 76.416 16.912 76.416 20.496V60.432ZM67.968 58.768H17.92V43.28H67.968V58.768ZM87.804 10.896C87.804 7.99466 88.7853 5.56267 90.748 3.6C92.796 1.63733 95.356 0.655998 98.428 0.655998C101.585 0.655998 104.145 1.63733 106.108 3.6C108.071 5.56267 109.052 7.99466 109.052 10.896C109.052 13.712 108.071 16.144 106.108 18.192C104.145 20.24 101.585 21.264 98.428 21.264C95.356 21.264 92.796 20.24 90.748 18.192C88.7853 16.144 87.804 13.712 87.804 10.896ZM88.956 56.208H107.9V89.872C107.132 90.128 105.98 90.3413 104.444 90.512C102.908 90.768 101.244 90.896 99.452 90.896C95.7827 90.896 93.0947 90.256 91.388 88.976C89.7667 87.696 88.956 85.392 88.956 82.064V56.208ZM107.9 66.064H88.956V29.328C89.724 29.072 90.876 28.816 92.412 28.56C94.0333 28.304 95.74 28.176 97.532 28.176C101.201 28.176 103.847 28.816 105.468 30.096C107.089 31.2907 107.9 33.6373 107.9 37.136V66.064ZM146.231 65.424L132.535 56.72L161.463 27.536C165.303 27.6213 168.375 28.5173 170.679 30.224C173.068 31.9307 174.263 34.064 174.263 36.624C174.263 38.8427 173.495 40.848 171.959 42.64C170.423 44.3467 168.076 46.5653 164.919 49.296L146.231 65.424ZM133.303 59.408L148.407 52.752L176.695 80.144C176.354 83.5573 175.33 86.2453 173.623 88.208C171.916 90.0853 169.484 91.024 166.327 91.024C164.023 91.024 161.89 90.4693 159.927 89.36C158.05 88.1653 156.044 86.2453 153.911 83.6L133.303 59.408ZM119.095 56.08L138.039 56.464V89.872C137.186 90.128 135.991 90.3413 134.455 90.512C132.919 90.768 131.255 90.896 129.463 90.896C125.879 90.896 123.234 90.256 121.527 88.976C119.906 87.696 119.095 85.392 119.095 82.064V56.08ZM138.039 66.32L119.095 65.936V6.672C119.863 6.416 121.015 6.16 122.551 5.904C124.087 5.648 125.751 5.52 127.543 5.52C131.212 5.52 133.858 6.16 135.479 7.43999C137.186 8.71999 138.039 11.0667 138.039 14.48V66.32ZM189.816 68.24L189.048 55.44L220.792 50.448C220.621 48.0587 219.597 45.84 217.72 43.792C215.843 41.744 213.069 40.72 209.4 40.72C205.56 40.72 202.36 42.0427 199.8 44.688C197.24 47.248 195.875 50.9173 195.704 55.696L196.344 64.528C197.112 69.2213 199.117 72.592 202.36 74.64C205.603 76.6027 209.443 77.584 213.88 77.584C217.464 77.584 220.835 77.072 223.992 76.048C227.149 75.024 229.709 73.9573 231.672 72.848C232.952 73.616 233.976 74.6827 234.744 76.048C235.597 77.4133 236.024 78.864 236.024 80.4C236.024 82.96 235 85.0933 232.952 86.8C230.989 88.5067 228.216 89.7867 224.632 90.64C221.133 91.4933 217.123 91.92 212.6 91.92C206.029 91.92 200.099 90.6827 194.808 88.208C189.603 85.7333 185.507 82.0213 182.52 77.072C179.533 72.1227 178.04 65.936 178.04 58.512C178.04 53.0507 178.893 48.3147 180.6 44.304C182.392 40.2933 184.739 37.008 187.64 34.448C190.627 31.8027 193.955 29.84 197.624 28.56C201.379 27.28 205.261 26.64 209.272 26.64C215.16 26.64 220.28 27.8347 224.632 30.224C229.069 32.528 232.525 35.6853 235 39.696C237.475 43.7067 238.712 48.3573 238.712 53.648C238.712 56.2933 237.987 58.2987 236.536 59.664C235.085 61.0293 233.08 61.8827 230.52 62.224L189.816 68.24Z" fill="url(#paint0_linear_107_2)"/>
   <defs>
      <linearGradient id="paint0_linear_107_2" x1="35.7845" y1="36.4196" x2="206.924" y2="89.3349" gradientUnits="userSpaceOnUse">
         <stop offset="0.282229" stop-color="#5311B9"/>
         <stop offset="1" stop-color="#9C3FF2"/>
      </linearGradient>
   </defs>
</svg>
