<svg width="357" height="99" viewBox="0 0 357 99" fill="none" xmlns="http://www.w3.org/2000/svg">
   <path d="M120.088 37.856H139.544V91.872C138.776 92.128 137.539 92.3413 135.832 92.512C134.125 92.768 132.376 92.896 130.584 92.896C126.744 92.896 124.013 92.2133 122.392 90.848C120.856 89.4827 120.088 87.0933 120.088 83.68V37.856ZM139.544 62.432H120.088V14.176C120.941 14.0053 122.221 13.792 123.928 13.536C125.72 13.28 127.427 13.152 129.048 13.152C132.803 13.152 135.491 13.792 137.112 15.072C138.733 16.352 139.544 18.784 139.544 22.368V62.432ZM167.832 37.856H187.416V91.872C186.563 92.128 185.283 92.3413 183.576 92.512C181.869 92.768 180.12 92.896 178.328 92.896C174.488 92.896 171.757 92.2133 170.136 90.848C168.6 89.4827 167.832 87.0933 167.832 83.68V37.856ZM187.416 62.432H167.832V14.176C168.771 14.0053 170.093 13.792 171.8 13.536C173.507 13.28 175.213 13.152 176.92 13.152C180.589 13.152 183.235 13.8347 184.856 15.2C186.563 16.48 187.416 18.912 187.416 22.496V62.432ZM178.968 60.768H128.92V45.28H178.968V60.768ZM198.804 12.896C198.804 9.99466 199.785 7.56267 201.748 5.6C203.796 3.63733 206.356 2.656 209.428 2.656C212.585 2.656 215.145 3.63733 217.108 5.6C219.071 7.56267 220.052 9.99466 220.052 12.896C220.052 15.712 219.071 18.144 217.108 20.192C215.145 22.24 212.585 23.264 209.428 23.264C206.356 23.264 203.796 22.24 201.748 20.192C199.785 18.144 198.804 15.712 198.804 12.896ZM199.956 58.208H218.9V91.872C218.132 92.128 216.98 92.3413 215.444 92.512C213.908 92.768 212.244 92.896 210.452 92.896C206.783 92.896 204.095 92.256 202.388 90.976C200.767 89.696 199.956 87.392 199.956 84.064V58.208ZM218.9 68.064H199.956V31.328C200.724 31.072 201.876 30.816 203.412 30.56C205.033 30.304 206.74 30.176 208.532 30.176C212.201 30.176 214.847 30.816 216.468 32.096C218.089 33.2907 218.9 35.6373 218.9 39.136V68.064ZM257.231 67.424L243.535 58.72L272.463 29.536C276.303 29.6213 279.375 30.5173 281.679 32.224C284.068 33.9307 285.263 36.064 285.263 38.624C285.263 40.8427 284.495 42.848 282.959 44.64C281.423 46.3467 279.076 48.5653 275.919 51.296L257.231 67.424ZM244.303 61.408L259.407 54.752L287.695 82.144C287.354 85.5573 286.33 88.2453 284.623 90.208C282.916 92.0853 280.484 93.024 277.327 93.024C275.023 93.024 272.89 92.4693 270.927 91.36C269.05 90.1653 267.044 88.2453 264.911 85.6L244.303 61.408ZM230.095 58.08L249.039 58.464V91.872C248.186 92.128 246.991 92.3413 245.455 92.512C243.919 92.768 242.255 92.896 240.463 92.896C236.879 92.896 234.234 92.256 232.527 90.976C230.906 89.696 230.095 87.392 230.095 84.064V58.08ZM249.039 68.32L230.095 67.936V8.672C230.863 8.416 232.015 8.16 233.551 7.904C235.087 7.648 236.751 7.52 238.543 7.52C242.212 7.52 244.858 8.16 246.479 9.43999C248.186 10.72 249.039 13.0667 249.039 16.48V68.32ZM300.816 70.24L300.048 57.44L331.792 52.448C331.621 50.0587 330.597 47.84 328.72 45.792C326.843 43.744 324.069 42.72 320.4 42.72C316.56 42.72 313.36 44.0427 310.8 46.688C308.24 49.248 306.875 52.9173 306.704 57.696L307.344 66.528C308.112 71.2213 310.117 74.592 313.36 76.64C316.603 78.6027 320.443 79.584 324.88 79.584C328.464 79.584 331.835 79.072 334.992 78.048C338.149 77.024 340.709 75.9573 342.672 74.848C343.952 75.616 344.976 76.6827 345.744 78.048C346.597 79.4133 347.024 80.864 347.024 82.4C347.024 84.96 346 87.0933 343.952 88.8C341.989 90.5067 339.216 91.7867 335.632 92.64C332.133 93.4933 328.123 93.92 323.6 93.92C317.029 93.92 311.099 92.6827 305.808 90.208C300.603 87.7333 296.507 84.0213 293.52 79.072C290.533 74.1227 289.04 67.936 289.04 60.512C289.04 55.0507 289.893 50.3147 291.6 46.304C293.392 42.2933 295.739 39.008 298.64 36.448C301.627 33.8027 304.955 31.84 308.624 30.56C312.379 29.28 316.261 28.64 320.272 28.64C326.16 28.64 331.28 29.8347 335.632 32.224C340.069 34.528 343.525 37.6853 346 41.696C348.475 45.7067 349.712 50.3573 349.712 55.648C349.712 58.2933 348.987 60.2987 347.536 61.664C346.085 63.0293 344.08 63.8827 341.52 64.224L300.816 70.24Z" fill="url(#paint0_linear_101_5)"/>
   <path d="M43.7656 93.9629V84.1733V70.7271C43.7656 67.8953 41.7857 65.4491 39.0162 64.8589L12.4006 59.1867C10.9623 58.8802 9.93413 57.6098 9.93413 56.1392C9.93413 54.9645 10.5947 53.8897 11.6427 53.3592L97.101 10.0959C98.1152 9.58249 99.4816 9.4127 100.51 9.89618C101.677 10.4445 102 11.6915 102 12.9806V82.5616C102 83.6173 101.756 84.6775 101.158 85.5473C101.007 85.7662 100.855 85.967 100.694 86.1519C99.6585 87.3387 97.8776 87.146 96.4368 86.51C89.2936 83.3571 67.4321 73.8175 66.5047 74.7448C65.5905 75.6591 53.7496 90.5142 49.6153 95.7081C48.6999 96.8582 47.3651 97.9118 45.9372 97.5627C45.3451 97.4179 44.8544 97.0704 44.3936 96.4054C43.9047 95.6997 43.7656 94.8213 43.7656 93.9629Z" fill="#9C3FF2" stroke="#9C3FF2"/>
   <path d="M35.191 28.2093L30.3059 30.5297C28.6439 31.3191 28.0917 33.4141 29.1486 34.9202C29.9985 36.1312 31.6098 36.5325 32.9283 35.8614L37.7482 33.4084C39.2156 32.6616 39.7665 30.8437 38.9605 29.408C38.2146 28.0794 36.5672 27.5555 35.191 28.2093Z" fill="#5311B9" stroke="#5311B9"/>
   <path d="M18.7649 37.0526L3.39458 44.7378C1.939 45.4656 0.737662 46.8394 1.21866 48.3941C1.61029 49.6599 2.89893 50.4927 4.19616 50.7627C11.2641 52.2338 34.4219 57.082 34.8918 57.5518C35.356 58.0161 35.0431 78.2981 34.9287 84.896C34.9056 86.231 35.2041 87.6946 36.3422 88.3927C36.6158 88.5605 36.897 88.6725 37.1996 88.7362C38.559 89.0222 39.7909 88.0217 40.652 86.9316C44.8658 81.597 57.7221 65.4076 58.1855 65.871C58.662 66.3474 81.6467 75.418 88.1187 77.9663C89.2244 78.4017 90.4693 78.6065 91.5287 78.0683C91.7814 77.9399 92.0006 77.7938 92.1984 77.6219C92.9589 76.9616 93.1302 75.8808 93.1378 74.8736L93.6721 4.34714C93.6778 3.58903 93.585 2.80855 93.1714 2.17321C92.9851 1.8871 92.78 1.65328 92.5466 1.4546C91.3556 0.440632 89.574 0.825648 88.1819 1.5387L47.8383 22.2025C45.995 23.1466 44.1415 25.305 45.4331 26.9238C45.4764 26.9781 45.5222 27.0304 45.5705 27.0809C46.6212 28.1788 48.3942 27.7914 49.7593 27.1236C56.3125 23.9178 75.8403 14.3848 75.3785 14.8466L75.3773 14.8478C74.7701 15.455 38.2186 52.0057 37.1102 52.0057C36.001 52.0057 13.2618 46.4595 12.1526 46.4595C11.3775 46.4595 17.1021 43.4805 20.621 41.6859C22.254 40.853 23.8341 38.9953 22.9279 37.4018C22.1366 36.0102 20.1967 36.3367 18.7649 37.0526Z" fill="#5311B9" stroke="#5311B9"/>
   <path d="M87.58 71.4172C88.1347 71.9718 60.9586 61.4341 61.5132 60.8795C62.0678 60.3249 88.1347 13.7373 88.1347 14.8466C88.1347 15.9558 87.0254 70.8625 87.58 71.4172Z" fill="#9C3FF2" stroke="#9C3FF2"/>
   <path d="M77.0424 21.5019C65.5804 32.7791 42.2126 55.6661 40.4379 56.9972V78.0725L55.9671 59.2157L77.0424 21.5019Z" fill="#4200A8"/>
   <defs>
      <linearGradient id="paint0_linear_101_5" x1="146.205" y1="38.4196" x2="315.046" y2="89.7789" gradientUnits="userSpaceOnUse">
         <stop offset="0.282229" stop-color="#5311B9"/>
         <stop offset="1" stop-color="#9C3FF2"/>
      </linearGradient>
   </defs>
</svg>
